<?xml version="1.0" encoding="utf-8"?>
<!-- Generator: Adobe Illustrator 26.3.1, SVG Export Plug-In . SVG Version: 6.00 Build 0)  -->
<svg version="1.2" baseProfile="tiny" id="g-5-companies-Artboard_1-interactions-img" xmlns="http://www.w3.org/2000/svg" xmlns:xlink="http://www.w3.org/1999/xlink"
	 x="0px" y="0px" viewBox="0 0 600 220" overflow="visible" xml:space="preserve">
<g>
	<g id="bytedance_00000035510530942087195830000006405328678907896733_">
		<g>
			<path fill="#181818" d="M1.879,204.297v-8.59h3.223c0.656,0,1.183,0.087,1.579,0.261s0.707,0.441,0.932,0.803
				s0.337,0.739,0.337,1.134c0,0.367-0.1,0.713-0.299,1.037s-0.5,0.586-0.902,0.785c0.52,0.152,0.919,0.412,1.198,0.779
				s0.419,0.801,0.419,1.301c0,0.402-0.085,0.776-0.255,1.122s-0.38,0.612-0.63,0.8s-0.563,0.329-0.94,0.425
				s-0.839,0.144-1.386,0.144H1.879z M3.016,199.316h1.857c0.504,0,0.865-0.033,1.084-0.1c0.289-0.086,0.507-0.229,0.653-0.428
				s0.22-0.449,0.22-0.75c0-0.285-0.068-0.536-0.205-0.753s-0.332-0.365-0.586-0.445s-0.689-0.12-1.307-0.12H3.016V199.316z
				 M3.016,203.283h2.139c0.367,0,0.625-0.014,0.773-0.041c0.262-0.047,0.48-0.125,0.656-0.234s0.32-0.269,0.434-0.478
				s0.17-0.45,0.17-0.724c0-0.32-0.082-0.599-0.246-0.835s-0.392-0.402-0.683-0.498s-0.71-0.144-1.257-0.144H3.016V203.283z"/>
			<path fill="#181818" d="M9.748,206.693l-0.117-0.99c0.23,0.062,0.432,0.094,0.604,0.094c0.234,0,0.422-0.039,0.562-0.117
				s0.256-0.188,0.346-0.328c0.066-0.105,0.174-0.367,0.322-0.785c0.02-0.059,0.051-0.145,0.094-0.258l-2.361-6.234h1.137
				l1.295,3.604c0.168,0.457,0.318,0.938,0.451,1.441c0.121-0.484,0.266-0.957,0.434-1.418l1.33-3.627h1.055l-2.367,6.328
				c-0.254,0.684-0.451,1.154-0.592,1.412c-0.188,0.348-0.402,0.603-0.645,0.765s-0.531,0.243-0.867,0.243
				C10.225,206.822,9.998,206.779,9.748,206.693z"/>
			<path fill="#181818" d="M18.098,203.354l0.152,0.932c-0.297,0.062-0.562,0.094-0.797,0.094c-0.383,0-0.68-0.061-0.891-0.182
				s-0.359-0.28-0.445-0.478s-0.129-0.612-0.129-1.245v-3.58h-0.773v-0.82h0.773v-1.541l1.049-0.633v2.174h1.061v0.82h-1.061v3.639
				c0,0.301,0.019,0.494,0.056,0.58s0.098,0.154,0.182,0.205s0.204,0.076,0.36,0.076C17.752,203.395,17.906,203.381,18.098,203.354z
				"/>
			<path fill="#181818" d="M23.389,202.293l1.09,0.135c-0.172,0.637-0.49,1.131-0.955,1.482s-1.059,0.527-1.781,0.527
				c-0.91,0-1.632-0.28-2.165-0.841s-0.8-1.347-0.8-2.358c0-1.047,0.27-1.859,0.809-2.438s1.238-0.867,2.098-0.867
				c0.832,0,1.512,0.283,2.039,0.85s0.791,1.363,0.791,2.391c0,0.062-0.002,0.156-0.006,0.281h-4.641
				c0.039,0.684,0.232,1.207,0.58,1.57s0.781,0.545,1.301,0.545c0.387,0,0.717-0.102,0.99-0.305S23.229,202.738,23.389,202.293z
				 M19.926,200.588H23.4c-0.047-0.523-0.18-0.916-0.398-1.178c-0.336-0.406-0.771-0.609-1.307-0.609
				c-0.484,0-0.892,0.162-1.222,0.486S19.961,200.045,19.926,200.588z"/>
			<path fill="#181818" d="M29.84,204.297v-0.785c-0.395,0.617-0.975,0.926-1.74,0.926c-0.496,0-0.952-0.137-1.368-0.41
				s-0.738-0.655-0.967-1.146s-0.343-1.054-0.343-1.69c0-0.621,0.104-1.185,0.311-1.69s0.518-0.894,0.932-1.163
				s0.877-0.404,1.389-0.404c0.375,0,0.709,0.079,1.002,0.237s0.531,0.364,0.715,0.618v-3.082h1.049v8.59H29.84z M26.506,201.191
				c0,0.797,0.168,1.393,0.504,1.787s0.732,0.592,1.189,0.592c0.461,0,0.853-0.188,1.175-0.565s0.483-0.952,0.483-1.726
				c0-0.852-0.164-1.477-0.492-1.875s-0.732-0.598-1.213-0.598c-0.469,0-0.86,0.191-1.175,0.574S26.506,200.367,26.506,201.191z"/>
			<path fill="#181818" d="M36.537,203.529c-0.391,0.332-0.767,0.566-1.128,0.703s-0.749,0.205-1.163,0.205
				c-0.684,0-1.209-0.167-1.576-0.501s-0.551-0.761-0.551-1.28c0-0.305,0.069-0.583,0.208-0.835s0.32-0.454,0.545-0.606
				s0.478-0.268,0.759-0.346c0.207-0.055,0.52-0.107,0.938-0.158c0.852-0.102,1.479-0.223,1.881-0.363
				c0.004-0.145,0.006-0.236,0.006-0.275c0-0.43-0.1-0.732-0.299-0.908c-0.27-0.238-0.67-0.357-1.201-0.357
				c-0.496,0-0.862,0.087-1.099,0.261s-0.411,0.481-0.524,0.923l-1.031-0.141c0.094-0.441,0.248-0.798,0.463-1.069
				s0.525-0.48,0.932-0.627s0.877-0.22,1.412-0.22c0.531,0,0.963,0.062,1.295,0.188s0.576,0.282,0.732,0.472
				s0.266,0.429,0.328,0.718c0.035,0.18,0.053,0.504,0.053,0.973v1.406c0,0.98,0.022,1.601,0.067,1.86s0.134,0.509,0.267,0.747
				h-1.102C36.639,204.078,36.568,203.822,36.537,203.529z M36.449,201.174c-0.383,0.156-0.957,0.289-1.723,0.398
				c-0.434,0.062-0.74,0.133-0.92,0.211s-0.318,0.192-0.416,0.343s-0.146,0.317-0.146,0.501c0,0.281,0.106,0.516,0.319,0.703
				s0.524,0.281,0.935,0.281c0.406,0,0.768-0.089,1.084-0.267s0.549-0.421,0.697-0.729c0.113-0.238,0.17-0.59,0.17-1.055V201.174z"
				/>
			<path fill="#181818" d="M39.15,204.297v-6.223H40.1v0.885c0.457-0.684,1.117-1.025,1.98-1.025c0.375,0,0.72,0.067,1.034,0.202
				s0.55,0.312,0.706,0.53s0.266,0.479,0.328,0.779c0.039,0.195,0.059,0.537,0.059,1.025v3.826h-1.055v-3.785
				c0-0.43-0.041-0.751-0.123-0.964s-0.228-0.383-0.437-0.51s-0.454-0.19-0.735-0.19c-0.449,0-0.837,0.143-1.163,0.428
				s-0.489,0.826-0.489,1.623v3.398H39.15z"/>
			<path fill="#181818" d="M49.885,202.018l1.037,0.135c-0.113,0.715-0.403,1.274-0.87,1.679s-1.04,0.606-1.72,0.606
				c-0.852,0-1.536-0.278-2.054-0.835s-0.776-1.354-0.776-2.394c0-0.672,0.111-1.26,0.334-1.764s0.562-0.882,1.017-1.134
				s0.95-0.378,1.485-0.378c0.676,0,1.229,0.171,1.658,0.513s0.705,0.827,0.826,1.456l-1.025,0.158
				c-0.098-0.418-0.271-0.732-0.519-0.943s-0.548-0.316-0.899-0.316c-0.531,0-0.963,0.19-1.295,0.571s-0.498,0.983-0.498,1.808
				c0,0.836,0.16,1.443,0.48,1.822s0.738,0.568,1.254,0.568c0.414,0,0.76-0.127,1.037-0.381S49.811,202.545,49.885,202.018z"/>
			<path fill="#181818" d="M56.084,202.293l1.09,0.135c-0.172,0.637-0.49,1.131-0.955,1.482s-1.059,0.527-1.781,0.527
				c-0.91,0-1.632-0.28-2.165-0.841s-0.8-1.347-0.8-2.358c0-1.047,0.27-1.859,0.809-2.438s1.238-0.867,2.098-0.867
				c0.832,0,1.512,0.283,2.039,0.85s0.791,1.363,0.791,2.391c0,0.062-0.002,0.156-0.006,0.281h-4.641
				c0.039,0.684,0.232,1.207,0.58,1.57s0.781,0.545,1.301,0.545c0.387,0,0.717-0.102,0.99-0.305S55.924,202.738,56.084,202.293z
				 M52.621,200.588h3.475c-0.047-0.523-0.18-0.916-0.398-1.178c-0.336-0.406-0.771-0.609-1.307-0.609
				c-0.484,0-0.892,0.162-1.222,0.486S52.656,200.045,52.621,200.588z"/>
		</g>
		<g>
			<rect x="81.031" y="186" fill="#D73129" width="258.125" height="27"/>
		</g>
		<g>
			<path fill="#FFFFFF" d="M86.535,201.732l1.055-0.141c0.121,0.598,0.327,1.028,0.618,1.292s0.646,0.396,1.063,0.396
				c0.496,0,0.915-0.172,1.257-0.516s0.513-0.77,0.513-1.277c0-0.484-0.158-0.884-0.475-1.198s-0.719-0.472-1.207-0.472
				c-0.199,0-0.447,0.039-0.744,0.117l0.117-0.926c0.07,0.008,0.127,0.012,0.17,0.012c0.449,0,0.854-0.117,1.213-0.352
				s0.539-0.596,0.539-1.084c0-0.387-0.131-0.707-0.393-0.961s-0.6-0.381-1.014-0.381c-0.41,0-0.752,0.129-1.025,0.387
				s-0.449,0.645-0.527,1.16l-1.055-0.188c0.129-0.707,0.422-1.255,0.879-1.644s1.025-0.583,1.705-0.583
				c0.469,0,0.9,0.101,1.295,0.302s0.696,0.476,0.905,0.823s0.313,0.717,0.313,1.107c0,0.371-0.1,0.709-0.299,1.014
				s-0.494,0.547-0.885,0.727c0.508,0.117,0.902,0.36,1.184,0.729s0.422,0.831,0.422,1.386c0,0.75-0.273,1.386-0.82,1.907
				s-1.238,0.782-2.074,0.782c-0.754,0-1.38-0.225-1.878-0.674S86.605,202.447,86.535,201.732z"/>
			<path fill="#FFFFFF" d="M93.771,204v-1.201h1.201V204c0,0.441-0.078,0.798-0.234,1.069s-0.404,0.481-0.744,0.63l-0.293-0.451
				c0.223-0.098,0.387-0.241,0.492-0.431s0.164-0.462,0.176-0.817H93.771z"/>
			<path fill="#FFFFFF" d="M96.607,196.535v-1.014h5.561v0.82c-0.547,0.582-1.089,1.355-1.626,2.32s-0.952,1.957-1.245,2.977
				c-0.211,0.719-0.346,1.506-0.404,2.361h-1.084c0.012-0.676,0.145-1.492,0.398-2.449s0.618-1.88,1.093-2.769
				s0.979-1.638,1.515-2.247H96.607z"/>
			<path fill="#FFFFFF" d="M103.211,201.75l1.107-0.094c0.082,0.539,0.272,0.944,0.571,1.216s0.659,0.407,1.081,0.407
				c0.508,0,0.938-0.191,1.289-0.574s0.527-0.891,0.527-1.523c0-0.602-0.169-1.076-0.507-1.424s-0.78-0.521-1.327-0.521
				c-0.34,0-0.646,0.077-0.92,0.231s-0.488,0.354-0.645,0.601l-0.99-0.129l0.832-4.412h4.271v1.008h-3.428l-0.463,2.309
				c0.516-0.359,1.057-0.539,1.623-0.539c0.75,0,1.383,0.26,1.898,0.779s0.773,1.188,0.773,2.004c0,0.777-0.227,1.449-0.68,2.016
				c-0.551,0.695-1.303,1.043-2.256,1.043c-0.781,0-1.419-0.219-1.913-0.656S103.281,202.473,103.211,201.75z"/>
			<path fill="#FFFFFF" d="M109.885,199.764c0-1.016,0.104-1.833,0.313-2.452s0.52-1.097,0.932-1.433s0.931-0.504,1.556-0.504
				c0.461,0,0.865,0.093,1.213,0.278s0.635,0.453,0.861,0.803s0.404,0.775,0.533,1.277s0.193,1.179,0.193,2.03
				c0,1.008-0.104,1.821-0.311,2.44s-0.517,1.098-0.929,1.436s-0.933,0.507-1.562,0.507c-0.828,0-1.479-0.297-1.951-0.891
				C110.168,202.541,109.885,201.377,109.885,199.764z M110.969,199.764c0,1.41,0.165,2.349,0.495,2.815s0.737,0.7,1.222,0.7
				s0.892-0.234,1.222-0.703s0.495-1.406,0.495-2.812c0-1.414-0.165-2.354-0.495-2.818s-0.741-0.697-1.233-0.697
				c-0.484,0-0.871,0.205-1.16,0.615C111.15,197.387,110.969,198.354,110.969,199.764z"/>
		</g>
	</g>
	<g id="better_00000169529993820283282870000007701662007899236745_">
		<g>
			<path fill="#181818" d="M1.879,173.297v-8.59h3.223c0.656,0,1.183,0.087,1.579,0.261s0.707,0.441,0.932,0.803
				s0.337,0.739,0.337,1.134c0,0.367-0.1,0.713-0.299,1.037s-0.5,0.586-0.902,0.785c0.52,0.152,0.919,0.412,1.198,0.779
				s0.419,0.801,0.419,1.301c0,0.402-0.085,0.776-0.255,1.122s-0.38,0.612-0.63,0.8s-0.563,0.329-0.94,0.425
				s-0.839,0.144-1.386,0.144H1.879z M3.016,168.316h1.857c0.504,0,0.865-0.033,1.084-0.1c0.289-0.086,0.507-0.229,0.653-0.428
				s0.22-0.449,0.22-0.75c0-0.285-0.068-0.536-0.205-0.753s-0.332-0.365-0.586-0.445s-0.689-0.12-1.307-0.12H3.016V168.316z
				 M3.016,172.283h2.139c0.367,0,0.625-0.014,0.773-0.041c0.262-0.047,0.48-0.125,0.656-0.234s0.32-0.269,0.434-0.478
				s0.17-0.45,0.17-0.724c0-0.32-0.082-0.599-0.246-0.835s-0.392-0.402-0.683-0.498s-0.71-0.144-1.257-0.144H3.016V172.283z"/>
			<path fill="#181818" d="M14.055,171.293l1.09,0.135c-0.172,0.637-0.49,1.131-0.955,1.482s-1.059,0.527-1.781,0.527
				c-0.91,0-1.632-0.28-2.165-0.841s-0.8-1.347-0.8-2.358c0-1.047,0.27-1.859,0.809-2.438s1.238-0.867,2.098-0.867
				c0.832,0,1.512,0.283,2.039,0.85s0.791,1.363,0.791,2.391c0,0.062-0.002,0.156-0.006,0.281h-4.641
				c0.039,0.684,0.232,1.207,0.58,1.57s0.781,0.545,1.301,0.545c0.387,0,0.717-0.102,0.99-0.305S13.895,171.738,14.055,171.293z
				 M10.592,169.588h3.475c-0.047-0.523-0.18-0.916-0.398-1.178c-0.336-0.406-0.771-0.609-1.307-0.609
				c-0.484,0-0.892,0.162-1.222,0.486S10.627,169.045,10.592,169.588z"/>
			<path fill="#181818" d="M18.771,172.354l0.152,0.932c-0.297,0.062-0.562,0.094-0.797,0.094c-0.383,0-0.68-0.061-0.891-0.182
				s-0.359-0.28-0.445-0.478s-0.129-0.612-0.129-1.245v-3.58h-0.773v-0.82h0.773v-1.541l1.049-0.633v2.174h1.061v0.82h-1.061v3.639
				c0,0.301,0.019,0.494,0.056,0.58s0.098,0.154,0.182,0.205s0.204,0.076,0.36,0.076C18.426,172.395,18.58,172.381,18.771,172.354z"
				/>
			<path fill="#181818" d="M22.105,172.354l0.152,0.932c-0.297,0.062-0.562,0.094-0.797,0.094c-0.383,0-0.68-0.061-0.891-0.182
				s-0.359-0.28-0.445-0.478s-0.129-0.612-0.129-1.245v-3.58h-0.773v-0.82h0.773v-1.541l1.049-0.633v2.174h1.061v0.82h-1.061v3.639
				c0,0.301,0.019,0.494,0.056,0.58s0.098,0.154,0.182,0.205s0.204,0.076,0.36,0.076C21.76,172.395,21.914,172.381,22.105,172.354z"
				/>
			<path fill="#181818" d="M27.396,171.293l1.09,0.135c-0.172,0.637-0.49,1.131-0.955,1.482s-1.059,0.527-1.781,0.527
				c-0.91,0-1.632-0.28-2.165-0.841s-0.8-1.347-0.8-2.358c0-1.047,0.27-1.859,0.809-2.438s1.238-0.867,2.098-0.867
				c0.832,0,1.512,0.283,2.039,0.85s0.791,1.363,0.791,2.391c0,0.062-0.002,0.156-0.006,0.281h-4.641
				c0.039,0.684,0.232,1.207,0.58,1.57s0.781,0.545,1.301,0.545c0.387,0,0.717-0.102,0.99-0.305S27.236,171.738,27.396,171.293z
				 M23.934,169.588h3.475c-0.047-0.523-0.18-0.916-0.398-1.178c-0.336-0.406-0.771-0.609-1.307-0.609
				c-0.484,0-0.892,0.162-1.222,0.486S23.969,169.045,23.934,169.588z"/>
			<path fill="#181818" d="M29.799,173.297v-6.223h0.949v0.943c0.242-0.441,0.466-0.732,0.671-0.873s0.431-0.211,0.677-0.211
				c0.355,0,0.717,0.113,1.084,0.34l-0.363,0.979c-0.258-0.152-0.516-0.229-0.773-0.229c-0.23,0-0.438,0.069-0.621,0.208
				s-0.314,0.331-0.393,0.577c-0.117,0.375-0.176,0.785-0.176,1.23v3.258H29.799z"/>
			<path fill="#181818" d="M33.443,173.297v-1.201h1.201v1.201H33.443z"/>
			<path fill="#181818" d="M40.539,171.018l1.037,0.135c-0.113,0.715-0.403,1.274-0.87,1.679s-1.04,0.606-1.72,0.606
				c-0.852,0-1.536-0.278-2.054-0.835s-0.776-1.354-0.776-2.394c0-0.672,0.111-1.26,0.334-1.764s0.562-0.882,1.017-1.134
				s0.95-0.378,1.485-0.378c0.676,0,1.229,0.171,1.658,0.513s0.705,0.827,0.826,1.456l-1.025,0.158
				c-0.098-0.418-0.271-0.732-0.519-0.943s-0.548-0.316-0.899-0.316c-0.531,0-0.963,0.19-1.295,0.571s-0.498,0.983-0.498,1.808
				c0,0.836,0.16,1.443,0.48,1.822s0.738,0.568,1.254,0.568c0.414,0,0.76-0.127,1.037-0.381S40.465,171.545,40.539,171.018z"/>
			<path fill="#181818" d="M42.086,170.186c0-1.152,0.32-2.006,0.961-2.561c0.535-0.461,1.188-0.691,1.957-0.691
				c0.855,0,1.555,0.28,2.098,0.841s0.814,1.335,0.814,2.323c0,0.801-0.12,1.431-0.36,1.89s-0.59,0.815-1.049,1.069
				s-0.96,0.381-1.503,0.381c-0.871,0-1.575-0.279-2.112-0.838S42.086,171.236,42.086,170.186z M43.17,170.186
				c0,0.797,0.174,1.394,0.521,1.79s0.785,0.595,1.312,0.595c0.523,0,0.959-0.199,1.307-0.598s0.521-1.006,0.521-1.822
				c0-0.77-0.175-1.353-0.524-1.749s-0.784-0.595-1.304-0.595c-0.527,0-0.965,0.197-1.312,0.592S43.17,169.389,43.17,170.186z"/>
			<path fill="#181818" d="M49.152,173.297v-6.223h0.943v0.873c0.195-0.305,0.455-0.55,0.779-0.735s0.693-0.278,1.107-0.278
				c0.461,0,0.839,0.096,1.134,0.287s0.503,0.459,0.624,0.803c0.492-0.727,1.133-1.09,1.922-1.09c0.617,0,1.092,0.171,1.424,0.513
				s0.498,0.868,0.498,1.579v4.271h-1.049v-3.92c0-0.422-0.034-0.726-0.103-0.911s-0.192-0.335-0.372-0.448s-0.391-0.17-0.633-0.17
				c-0.438,0-0.801,0.146-1.09,0.437s-0.434,0.757-0.434,1.397v3.615H52.85v-4.043c0-0.469-0.086-0.82-0.258-1.055
				s-0.453-0.352-0.844-0.352c-0.297,0-0.571,0.078-0.823,0.234s-0.435,0.385-0.548,0.686s-0.17,0.734-0.17,1.301v3.229H49.152z"/>
		</g>
		<g>
			<rect x="81.031" y="155" fill="#D73129" width="268.453" height="27"/>
		</g>
		<g>
			<path fill="#FFFFFF" d="M86.535,170.732l1.055-0.141c0.121,0.598,0.327,1.028,0.618,1.292s0.646,0.396,1.063,0.396
				c0.496,0,0.915-0.172,1.257-0.516s0.513-0.77,0.513-1.277c0-0.484-0.158-0.884-0.475-1.198s-0.719-0.472-1.207-0.472
				c-0.199,0-0.447,0.039-0.744,0.117l0.117-0.926c0.07,0.008,0.127,0.012,0.17,0.012c0.449,0,0.854-0.117,1.213-0.352
				s0.539-0.596,0.539-1.084c0-0.387-0.131-0.707-0.393-0.961s-0.6-0.381-1.014-0.381c-0.41,0-0.752,0.129-1.025,0.387
				s-0.449,0.645-0.527,1.16l-1.055-0.188c0.129-0.707,0.422-1.255,0.879-1.644s1.025-0.583,1.705-0.583
				c0.469,0,0.9,0.101,1.295,0.302s0.696,0.476,0.905,0.823s0.313,0.717,0.313,1.107c0,0.371-0.1,0.709-0.299,1.014
				s-0.494,0.547-0.885,0.727c0.508,0.117,0.902,0.36,1.184,0.729s0.422,0.831,0.422,1.386c0,0.75-0.273,1.386-0.82,1.907
				s-1.238,0.782-2.074,0.782c-0.754,0-1.38-0.225-1.878-0.674S86.605,171.447,86.535,170.732z"/>
			<path fill="#FFFFFF" d="M93.771,173v-1.201h1.201V173c0,0.441-0.078,0.798-0.234,1.069s-0.404,0.481-0.744,0.63l-0.293-0.451
				c0.223-0.098,0.387-0.241,0.492-0.431s0.164-0.462,0.176-0.817H93.771z"/>
			<path fill="#FFFFFF" d="M96.695,171.014l1.014-0.094c0.086,0.477,0.25,0.822,0.492,1.037s0.553,0.322,0.932,0.322
				c0.324,0,0.608-0.074,0.853-0.223s0.444-0.347,0.601-0.595s0.287-0.583,0.393-1.005s0.158-0.852,0.158-1.289
				c0-0.047-0.002-0.117-0.006-0.211c-0.211,0.336-0.499,0.608-0.864,0.817s-0.761,0.313-1.187,0.313
				c-0.711,0-1.312-0.258-1.805-0.773s-0.738-1.195-0.738-2.039c0-0.871,0.257-1.572,0.771-2.104s1.157-0.797,1.931-0.797
				c0.559,0,1.069,0.15,1.532,0.451s0.814,0.729,1.055,1.286s0.36,1.362,0.36,2.417c0,1.098-0.119,1.972-0.357,2.622
				s-0.593,1.146-1.063,1.485s-1.022,0.51-1.655,0.51c-0.672,0-1.221-0.187-1.646-0.56S96.781,171.689,96.695,171.014z
				 M101.014,167.223c0-0.605-0.161-1.086-0.483-1.441s-0.71-0.533-1.163-0.533c-0.469,0-0.877,0.191-1.225,0.574
				s-0.521,0.879-0.521,1.488c0,0.547,0.165,0.991,0.495,1.333s0.737,0.513,1.222,0.513c0.488,0,0.89-0.171,1.204-0.513
				S101.014,167.828,101.014,167.223z"/>
			<path fill="#FFFFFF" d="M103.211,168.764c0-1.016,0.104-1.833,0.313-2.452s0.52-1.097,0.932-1.433s0.931-0.504,1.556-0.504
				c0.461,0,0.865,0.093,1.213,0.278s0.635,0.453,0.861,0.803s0.404,0.775,0.533,1.277s0.193,1.179,0.193,2.03
				c0,1.008-0.104,1.821-0.311,2.44s-0.517,1.098-0.929,1.436s-0.933,0.507-1.562,0.507c-0.828,0-1.479-0.297-1.951-0.891
				C103.494,171.541,103.211,170.377,103.211,168.764z M104.295,168.764c0,1.41,0.165,2.349,0.495,2.815s0.737,0.7,1.222,0.7
				s0.892-0.234,1.222-0.703s0.495-1.406,0.495-2.812c0-1.414-0.165-2.354-0.495-2.818s-0.741-0.697-1.233-0.697
				c-0.484,0-0.871,0.205-1.16,0.615C104.477,166.387,104.295,167.354,104.295,168.764z"/>
			<path fill="#FFFFFF" d="M109.885,168.764c0-1.016,0.104-1.833,0.313-2.452s0.52-1.097,0.932-1.433s0.931-0.504,1.556-0.504
				c0.461,0,0.865,0.093,1.213,0.278s0.635,0.453,0.861,0.803s0.404,0.775,0.533,1.277s0.193,1.179,0.193,2.03
				c0,1.008-0.104,1.821-0.311,2.44s-0.517,1.098-0.929,1.436s-0.933,0.507-1.562,0.507c-0.828,0-1.479-0.297-1.951-0.891
				C110.168,171.541,109.885,170.377,109.885,168.764z M110.969,168.764c0,1.41,0.165,2.349,0.495,2.815s0.737,0.7,1.222,0.7
				s0.892-0.234,1.222-0.703s0.495-1.406,0.495-2.812c0-1.414-0.165-2.354-0.495-2.818s-0.741-0.697-1.233-0.697
				c-0.484,0-0.871,0.205-1.16,0.615C111.15,166.387,110.969,167.354,110.969,168.764z"/>
		</g>
	</g>
	<g id="booking_00000075875987332501472220000015952903072771918783_">
		<g>
			<path fill="#181818" d="M1.879,142.297v-8.59h3.223c0.656,0,1.183,0.087,1.579,0.261s0.707,0.441,0.932,0.803
				s0.337,0.739,0.337,1.134c0,0.367-0.1,0.713-0.299,1.037s-0.5,0.586-0.902,0.785c0.52,0.152,0.919,0.412,1.198,0.779
				s0.419,0.801,0.419,1.301c0,0.402-0.085,0.776-0.255,1.122s-0.38,0.612-0.63,0.8s-0.563,0.329-0.94,0.425
				s-0.839,0.144-1.386,0.144H1.879z M3.016,137.316h1.857c0.504,0,0.865-0.033,1.084-0.1c0.289-0.086,0.507-0.229,0.653-0.428
				s0.22-0.449,0.22-0.75c0-0.285-0.068-0.536-0.205-0.753s-0.332-0.365-0.586-0.445s-0.689-0.12-1.307-0.12H3.016V137.316z
				 M3.016,141.283h2.139c0.367,0,0.625-0.014,0.773-0.041c0.262-0.047,0.48-0.125,0.656-0.234s0.32-0.269,0.434-0.478
				s0.17-0.45,0.17-0.724c0-0.32-0.082-0.599-0.246-0.835s-0.392-0.402-0.683-0.498s-0.71-0.144-1.257-0.144H3.016V141.283z"/>
			<path fill="#181818" d="M9.402,139.186c0-1.152,0.32-2.006,0.961-2.561c0.535-0.461,1.188-0.691,1.957-0.691
				c0.855,0,1.555,0.28,2.098,0.841s0.814,1.335,0.814,2.323c0,0.801-0.12,1.431-0.36,1.89s-0.59,0.815-1.049,1.069
				s-0.96,0.381-1.503,0.381c-0.871,0-1.575-0.279-2.112-0.838S9.402,140.236,9.402,139.186z M10.486,139.186
				c0,0.797,0.174,1.394,0.521,1.79s0.785,0.595,1.312,0.595c0.523,0,0.959-0.199,1.307-0.598s0.521-1.006,0.521-1.822
				c0-0.77-0.175-1.353-0.524-1.749s-0.784-0.595-1.304-0.595c-0.527,0-0.965,0.197-1.312,0.592S10.486,138.389,10.486,139.186z"/>
			<path fill="#181818" d="M16.076,139.186c0-1.152,0.32-2.006,0.961-2.561c0.535-0.461,1.188-0.691,1.957-0.691
				c0.855,0,1.555,0.28,2.098,0.841s0.814,1.335,0.814,2.323c0,0.801-0.12,1.431-0.36,1.89s-0.59,0.815-1.049,1.069
				s-0.96,0.381-1.503,0.381c-0.871,0-1.575-0.279-2.112-0.838S16.076,140.236,16.076,139.186z M17.16,139.186
				c0,0.797,0.174,1.394,0.521,1.79s0.785,0.595,1.312,0.595c0.523,0,0.959-0.199,1.307-0.598s0.521-1.006,0.521-1.822
				c0-0.77-0.175-1.353-0.524-1.749s-0.784-0.595-1.304-0.595c-0.527,0-0.965,0.197-1.312,0.592S17.16,138.389,17.16,139.186z"/>
			<path fill="#181818" d="M23.148,142.297v-8.59h1.055v4.898l2.496-2.531h1.365l-2.379,2.309l2.619,3.914h-1.301l-2.057-3.182
				l-0.744,0.715v2.467H23.148z"/>
			<path fill="#181818" d="M29.148,134.92v-1.213h1.055v1.213H29.148z M29.148,142.297v-6.223h1.055v6.223H29.148z"/>
			<path fill="#181818" d="M31.809,142.297v-6.223h0.949v0.885c0.457-0.684,1.117-1.025,1.98-1.025c0.375,0,0.72,0.067,1.034,0.202
				s0.55,0.312,0.706,0.53s0.266,0.479,0.328,0.779c0.039,0.195,0.059,0.537,0.059,1.025v3.826h-1.055v-3.785
				c0-0.43-0.041-0.751-0.123-0.964s-0.228-0.383-0.437-0.51s-0.454-0.19-0.735-0.19c-0.449,0-0.837,0.143-1.163,0.428
				s-0.489,0.826-0.489,1.623v3.398H31.809z"/>
			<path fill="#181818" d="M38.289,142.812l1.025,0.152c0.043,0.316,0.162,0.547,0.357,0.691c0.262,0.195,0.619,0.293,1.072,0.293
				c0.488,0,0.865-0.098,1.131-0.293s0.445-0.469,0.539-0.82c0.055-0.215,0.08-0.666,0.076-1.354
				c-0.461,0.543-1.035,0.814-1.723,0.814c-0.855,0-1.518-0.309-1.986-0.926s-0.703-1.357-0.703-2.221
				c0-0.594,0.107-1.142,0.322-1.644s0.526-0.89,0.935-1.163s0.888-0.41,1.438-0.41c0.734,0,1.34,0.297,1.816,0.891v-0.75h0.973
				v5.379c0,0.969-0.099,1.655-0.296,2.06s-0.51,0.724-0.938,0.958s-0.954,0.352-1.579,0.352c-0.742,0-1.342-0.167-1.799-0.501
				S38.273,143.484,38.289,142.812z M39.162,139.074c0,0.816,0.162,1.412,0.486,1.787s0.73,0.562,1.219,0.562
				c0.484,0,0.891-0.187,1.219-0.56s0.492-0.958,0.492-1.755c0-0.762-0.169-1.336-0.507-1.723s-0.745-0.58-1.222-0.58
				c-0.469,0-0.867,0.19-1.195,0.571S39.162,138.324,39.162,139.074z"/>
			<path fill="#181818" d="M45.455,142.297v-1.201h1.201v1.201H45.455z"/>
			<path fill="#181818" d="M52.551,140.018l1.037,0.135c-0.113,0.715-0.403,1.274-0.87,1.679s-1.04,0.606-1.72,0.606
				c-0.852,0-1.536-0.278-2.054-0.835s-0.776-1.354-0.776-2.394c0-0.672,0.111-1.26,0.334-1.764s0.562-0.882,1.017-1.134
				s0.95-0.378,1.485-0.378c0.676,0,1.229,0.171,1.658,0.513s0.705,0.827,0.826,1.456l-1.025,0.158
				c-0.098-0.418-0.271-0.732-0.519-0.943s-0.548-0.316-0.899-0.316c-0.531,0-0.963,0.19-1.295,0.571s-0.498,0.983-0.498,1.808
				c0,0.836,0.16,1.443,0.48,1.822s0.738,0.568,1.254,0.568c0.414,0,0.76-0.127,1.037-0.381S52.477,140.545,52.551,140.018z"/>
			<path fill="#181818" d="M54.098,139.186c0-1.152,0.32-2.006,0.961-2.561c0.535-0.461,1.188-0.691,1.957-0.691
				c0.855,0,1.555,0.28,2.098,0.841s0.814,1.335,0.814,2.323c0,0.801-0.12,1.431-0.36,1.89s-0.59,0.815-1.049,1.069
				s-0.96,0.381-1.503,0.381c-0.871,0-1.575-0.279-2.112-0.838S54.098,140.236,54.098,139.186z M55.182,139.186
				c0,0.797,0.174,1.394,0.521,1.79s0.785,0.595,1.312,0.595c0.523,0,0.959-0.199,1.307-0.598s0.521-1.006,0.521-1.822
				c0-0.77-0.175-1.353-0.524-1.749s-0.784-0.595-1.304-0.595c-0.527,0-0.965,0.197-1.312,0.592S55.182,138.389,55.182,139.186z"/>
			<path fill="#181818" d="M61.164,142.297v-6.223h0.943v0.873c0.195-0.305,0.455-0.55,0.779-0.735s0.693-0.278,1.107-0.278
				c0.461,0,0.839,0.096,1.134,0.287s0.503,0.459,0.624,0.803c0.492-0.727,1.133-1.09,1.922-1.09c0.617,0,1.092,0.171,1.424,0.513
				s0.498,0.868,0.498,1.579v4.271h-1.049v-3.92c0-0.422-0.034-0.726-0.103-0.911s-0.192-0.335-0.372-0.448s-0.391-0.17-0.633-0.17
				c-0.438,0-0.801,0.146-1.09,0.437s-0.434,0.757-0.434,1.397v3.615h-1.055v-4.043c0-0.469-0.086-0.82-0.258-1.055
				s-0.453-0.352-0.844-0.352c-0.297,0-0.571,0.078-0.823,0.234s-0.435,0.385-0.548,0.686s-0.17,0.734-0.17,1.301v3.229H61.164z"/>
		</g>
		<g>
			<rect x="81.031" y="124" fill="#D73129" width="301.141" height="27"/>
		</g>
		<g>
			<path fill="#FFFFFF" d="M89.91,142v-2.057h-3.727v-0.967l3.92-5.566h0.861v5.566h1.16v0.967h-1.16V142H89.91z M89.91,138.977
				v-3.873l-2.689,3.873H89.91z"/>
			<path fill="#FFFFFF" d="M93.771,142v-1.201h1.201V142c0,0.441-0.078,0.798-0.234,1.069s-0.404,0.481-0.744,0.63l-0.293-0.451
				c0.223-0.098,0.387-0.241,0.492-0.431s0.164-0.462,0.176-0.817H93.771z"/>
			<path fill="#FFFFFF" d="M96.543,139.732l1.055-0.141c0.121,0.598,0.327,1.028,0.618,1.292s0.646,0.396,1.063,0.396
				c0.496,0,0.915-0.172,1.257-0.516s0.513-0.77,0.513-1.277c0-0.484-0.158-0.884-0.475-1.198s-0.719-0.472-1.207-0.472
				c-0.199,0-0.447,0.039-0.744,0.117l0.117-0.926c0.07,0.008,0.127,0.012,0.17,0.012c0.449,0,0.854-0.117,1.213-0.352
				s0.539-0.596,0.539-1.084c0-0.387-0.131-0.707-0.393-0.961s-0.6-0.381-1.014-0.381c-0.41,0-0.752,0.129-1.025,0.387
				s-0.449,0.645-0.527,1.16l-1.055-0.188c0.129-0.707,0.422-1.255,0.879-1.644s1.025-0.583,1.705-0.583
				c0.469,0,0.9,0.101,1.295,0.302s0.696,0.476,0.905,0.823s0.313,0.717,0.313,1.107c0,0.371-0.1,0.709-0.299,1.014
				s-0.494,0.547-0.885,0.727c0.508,0.117,0.902,0.36,1.184,0.729s0.422,0.831,0.422,1.386c0,0.75-0.273,1.386-0.82,1.907
				s-1.238,0.782-2.074,0.782c-0.754,0-1.38-0.225-1.878-0.674S96.613,140.447,96.543,139.732z"/>
			<path fill="#FFFFFF" d="M103.281,134.535v-1.014h5.561v0.82c-0.547,0.582-1.089,1.355-1.626,2.32s-0.952,1.957-1.245,2.977
				c-0.211,0.719-0.346,1.506-0.404,2.361h-1.084c0.012-0.676,0.145-1.492,0.398-2.449s0.618-1.88,1.093-2.769
				s0.979-1.638,1.515-2.247H103.281z"/>
			<path fill="#FFFFFF" d="M109.885,139.75l1.107-0.094c0.082,0.539,0.272,0.944,0.571,1.216s0.659,0.407,1.081,0.407
				c0.508,0,0.938-0.191,1.289-0.574s0.527-0.891,0.527-1.523c0-0.602-0.169-1.076-0.507-1.424s-0.78-0.521-1.327-0.521
				c-0.34,0-0.646,0.077-0.92,0.231s-0.488,0.354-0.645,0.601l-0.99-0.129l0.832-4.412h4.271v1.008h-3.428l-0.463,2.309
				c0.516-0.359,1.057-0.539,1.623-0.539c0.75,0,1.383,0.26,1.898,0.779s0.773,1.188,0.773,2.004c0,0.777-0.227,1.449-0.68,2.016
				c-0.551,0.695-1.303,1.043-2.256,1.043c-0.781,0-1.419-0.219-1.913-0.656S109.955,140.473,109.885,139.75z"/>
		</g>
	</g>
	<g id="getir_00000137115584842965860520000008276352804194260885_">
		<g>
			<path fill="#181818" d="M5.945,107.928v-1.008l3.639-0.006v3.188c-0.559,0.445-1.135,0.78-1.729,1.005s-1.203,0.337-1.828,0.337
				c-0.844,0-1.61-0.181-2.3-0.542s-1.21-0.884-1.562-1.567s-0.527-1.447-0.527-2.291c0-0.836,0.175-1.616,0.524-2.341
				s0.853-1.263,1.509-1.614s1.412-0.527,2.268-0.527c0.621,0,1.183,0.101,1.685,0.302s0.896,0.481,1.181,0.841
				s0.502,0.828,0.65,1.406l-1.025,0.281c-0.129-0.438-0.289-0.781-0.48-1.031s-0.465-0.45-0.82-0.601s-0.75-0.226-1.184-0.226
				c-0.52,0-0.969,0.079-1.348,0.237s-0.685,0.366-0.917,0.624s-0.413,0.541-0.542,0.85c-0.219,0.531-0.328,1.107-0.328,1.729
				c0,0.766,0.132,1.406,0.396,1.922s0.647,0.898,1.151,1.148s1.039,0.375,1.605,0.375c0.492,0,0.973-0.095,1.441-0.284
				s0.824-0.392,1.066-0.606v-1.6H5.945z"/>
			<path fill="#181818" d="M15.385,109.293l1.09,0.135c-0.172,0.637-0.49,1.131-0.955,1.482s-1.059,0.527-1.781,0.527
				c-0.91,0-1.632-0.28-2.165-0.841s-0.8-1.347-0.8-2.358c0-1.047,0.27-1.859,0.809-2.438s1.238-0.867,2.098-0.867
				c0.832,0,1.512,0.283,2.039,0.85s0.791,1.363,0.791,2.391c0,0.062-0.002,0.156-0.006,0.281h-4.641
				c0.039,0.684,0.232,1.207,0.58,1.57s0.781,0.545,1.301,0.545c0.387,0,0.717-0.102,0.99-0.305S15.225,109.738,15.385,109.293z
				 M11.922,107.588h3.475c-0.047-0.523-0.18-0.916-0.398-1.178c-0.336-0.406-0.771-0.609-1.307-0.609
				c-0.484,0-0.892,0.162-1.222,0.486S11.957,107.045,11.922,107.588z"/>
			<path fill="#181818" d="M20.102,110.354l0.152,0.932c-0.297,0.062-0.562,0.094-0.797,0.094c-0.383,0-0.68-0.061-0.891-0.182
				s-0.359-0.28-0.445-0.478s-0.129-0.612-0.129-1.245v-3.58h-0.773v-0.82h0.773v-1.541l1.049-0.633v2.174h1.061v0.82h-1.061v3.639
				c0,0.301,0.019,0.494,0.056,0.58s0.098,0.154,0.182,0.205s0.204,0.076,0.36,0.076C19.756,110.395,19.91,110.381,20.102,110.354z"
				/>
			<path fill="#181818" d="M21.139,103.92v-1.213h1.055v1.213H21.139z M21.139,111.297v-6.223h1.055v6.223H21.139z"/>
			<path fill="#181818" d="M23.787,111.297v-6.223h0.949v0.943c0.242-0.441,0.466-0.732,0.671-0.873s0.431-0.211,0.677-0.211
				c0.355,0,0.717,0.113,1.084,0.34l-0.363,0.979c-0.258-0.152-0.516-0.229-0.773-0.229c-0.23,0-0.438,0.069-0.621,0.208
				s-0.314,0.331-0.393,0.577c-0.117,0.375-0.176,0.785-0.176,1.23v3.258H23.787z"/>
		</g>
		<g>
			<rect x="81.031" y="93" fill="#D73129" width="308.375" height="27"/>
		</g>
		<g>
			<path fill="#FFFFFF" d="M89.91,111v-2.057h-3.727v-0.967l3.92-5.566h0.861v5.566h1.16v0.967h-1.16V111H89.91z M89.91,107.977
				v-3.873l-2.689,3.873H89.91z"/>
			<path fill="#FFFFFF" d="M93.771,111v-1.201h1.201V111c0,0.441-0.078,0.798-0.234,1.069s-0.404,0.481-0.744,0.63l-0.293-0.451
				c0.223-0.098,0.387-0.241,0.492-0.431s0.164-0.462,0.176-0.817H93.771z"/>
			<path fill="#FFFFFF" d="M99.918,111v-2.057h-3.727v-0.967l3.92-5.566h0.861v5.566h1.16v0.967h-1.16V111H99.918z M99.918,107.977
				v-3.873l-2.689,3.873H99.918z"/>
			<path fill="#FFFFFF" d="M104.834,106.342c-0.438-0.16-0.762-0.389-0.973-0.686s-0.316-0.652-0.316-1.066
				c0-0.625,0.225-1.15,0.674-1.576s1.047-0.639,1.793-0.639c0.75,0,1.354,0.218,1.811,0.653s0.686,0.966,0.686,1.591
				c0,0.398-0.104,0.745-0.313,1.04s-0.526,0.522-0.952,0.683c0.527,0.172,0.929,0.449,1.204,0.832s0.413,0.84,0.413,1.371
				c0,0.734-0.26,1.352-0.779,1.852s-1.203,0.75-2.051,0.75s-1.531-0.251-2.051-0.753s-0.779-1.128-0.779-1.878
				c0-0.559,0.142-1.026,0.425-1.403S104.311,106.479,104.834,106.342z M104.283,108.521c0,0.301,0.071,0.592,0.214,0.873
				s0.354,0.499,0.636,0.653s0.584,0.231,0.908,0.231c0.504,0,0.92-0.162,1.248-0.486s0.492-0.736,0.492-1.236
				c0-0.508-0.169-0.928-0.507-1.26s-0.761-0.498-1.269-0.498c-0.496,0-0.907,0.164-1.233,0.492S104.283,108.029,104.283,108.521z
				 M104.623,104.555c0,0.406,0.131,0.738,0.393,0.996s0.602,0.387,1.02,0.387c0.406,0,0.739-0.128,0.999-0.384
				s0.39-0.569,0.39-0.94c0-0.387-0.134-0.712-0.401-0.976s-0.601-0.396-0.999-0.396c-0.402,0-0.736,0.129-1.002,0.387
				S104.623,104.195,104.623,104.555z"/>
			<path fill="#FFFFFF" d="M109.885,106.764c0-1.016,0.104-1.833,0.313-2.452s0.52-1.097,0.932-1.433s0.931-0.504,1.556-0.504
				c0.461,0,0.865,0.093,1.213,0.278s0.635,0.453,0.861,0.803s0.404,0.775,0.533,1.277s0.193,1.179,0.193,2.03
				c0,1.008-0.104,1.821-0.311,2.44s-0.517,1.098-0.929,1.436s-0.933,0.507-1.562,0.507c-0.828,0-1.479-0.297-1.951-0.891
				C110.168,109.541,109.885,108.377,109.885,106.764z M110.969,106.764c0,1.41,0.165,2.349,0.495,2.815s0.737,0.7,1.222,0.7
				s0.892-0.234,1.222-0.703s0.495-1.406,0.495-2.812c0-1.414-0.165-2.354-0.495-2.818s-0.741-0.697-1.233-0.697
				c-0.484,0-0.871,0.205-1.16,0.615C111.15,104.387,110.969,105.354,110.969,106.764z"/>
		</g>
	</g>
	<g id="uber_00000104686078978825707040000003263140208883510680_">
		<g id="uberBar_00000113317195363430192130000003769639512303725195_">
			<rect x="81.031" y="62" fill="#D73129" width="517.953" height="27"/>
		</g>
		<g id="uberNumber_00000024715927954332103740000018226629890769407926_">
			<path fill="#FFFFFF" d="M86.6,72.535v-1.014h5.561v0.82c-0.547,0.582-1.089,1.355-1.626,2.32s-0.952,1.957-1.245,2.977
				c-0.211,0.719-0.346,1.506-0.404,2.361h-1.084c0.012-0.676,0.145-1.492,0.398-2.449s0.618-1.88,1.093-2.769
				s0.979-1.638,1.515-2.247H86.6z"/>
			<path fill="#FFFFFF" d="M93.771,80v-1.201h1.201V80c0,0.441-0.078,0.798-0.234,1.069s-0.404,0.481-0.744,0.63l-0.293-0.451
				c0.223-0.098,0.387-0.241,0.492-0.431s0.164-0.462,0.176-0.817H93.771z"/>
			<path fill="#FFFFFF" d="M96.537,77.75l1.107-0.094c0.082,0.539,0.272,0.944,0.571,1.216s0.659,0.407,1.081,0.407
				c0.508,0,0.938-0.191,1.289-0.574s0.527-0.891,0.527-1.523c0-0.602-0.169-1.076-0.507-1.424s-0.78-0.521-1.327-0.521
				c-0.34,0-0.646,0.077-0.92,0.231s-0.488,0.354-0.645,0.601l-0.99-0.129l0.832-4.412h4.271v1.008H98.4l-0.463,2.309
				c0.516-0.359,1.057-0.539,1.623-0.539c0.75,0,1.383,0.26,1.898,0.779s0.773,1.188,0.773,2.004c0,0.777-0.227,1.449-0.68,2.016
				c-0.551,0.695-1.303,1.043-2.256,1.043c-0.781,0-1.419-0.219-1.913-0.656S96.607,78.473,96.537,77.75z"/>
			<path fill="#FFFFFF" d="M108.754,78.986V80h-5.678c-0.008-0.254,0.033-0.498,0.123-0.732c0.145-0.387,0.376-0.768,0.694-1.143
				s0.778-0.809,1.38-1.301c0.934-0.766,1.564-1.372,1.893-1.819s0.492-0.87,0.492-1.269c0-0.418-0.149-0.771-0.448-1.058
				s-0.688-0.431-1.169-0.431c-0.508,0-0.914,0.152-1.219,0.457s-0.459,0.727-0.463,1.266l-1.084-0.111
				c0.074-0.809,0.354-1.425,0.838-1.849s1.135-0.636,1.951-0.636c0.824,0,1.477,0.229,1.957,0.686s0.721,1.023,0.721,1.699
				c0,0.344-0.07,0.682-0.211,1.014s-0.374,0.682-0.7,1.049s-0.868,0.871-1.626,1.512c-0.633,0.531-1.039,0.892-1.219,1.081
				s-0.328,0.38-0.445,0.571H108.754z"/>
			<path fill="#FFFFFF" d="M109.885,77.75l1.107-0.094c0.082,0.539,0.272,0.944,0.571,1.216s0.659,0.407,1.081,0.407
				c0.508,0,0.938-0.191,1.289-0.574s0.527-0.891,0.527-1.523c0-0.602-0.169-1.076-0.507-1.424s-0.78-0.521-1.327-0.521
				c-0.34,0-0.646,0.077-0.92,0.231s-0.488,0.354-0.645,0.601l-0.99-0.129l0.832-4.412h4.271v1.008h-3.428l-0.463,2.309
				c0.516-0.359,1.057-0.539,1.623-0.539c0.75,0,1.383,0.26,1.898,0.779s0.773,1.188,0.773,2.004c0,0.777-0.227,1.449-0.68,2.016
				c-0.551,0.695-1.303,1.043-2.256,1.043c-0.781,0-1.419-0.219-1.913-0.656S109.955,78.473,109.885,77.75z"/>
		</g>
		<g id="uberText_00000172430574601762781470000005100369460597365938_">
			<path fill="#181818" d="M7.562,71.707h1.137v4.963c0,0.863-0.098,1.549-0.293,2.057s-0.548,0.921-1.058,1.239
				s-1.179,0.478-2.007,0.478c-0.805,0-1.463-0.139-1.975-0.416s-0.877-0.679-1.096-1.204S1.943,77.58,1.943,76.67v-4.963H3.08
				v4.957c0,0.746,0.069,1.296,0.208,1.649s0.377,0.626,0.715,0.817s0.751,0.287,1.239,0.287c0.836,0,1.432-0.189,1.787-0.568
				s0.533-1.107,0.533-2.186V71.707z"/>
			<path fill="#181818" d="M11.43,80.297h-0.979v-8.59h1.055v3.064c0.445-0.559,1.014-0.838,1.705-0.838
				c0.383,0,0.745,0.077,1.087,0.231s0.623,0.371,0.844,0.65s0.394,0.616,0.519,1.011s0.188,0.816,0.188,1.266
				c0,1.066-0.264,1.891-0.791,2.473s-1.16,0.873-1.898,0.873c-0.734,0-1.311-0.307-1.729-0.92V80.297z M11.418,77.139
				c0,0.746,0.102,1.285,0.305,1.617c0.332,0.543,0.781,0.814,1.348,0.814c0.461,0,0.859-0.2,1.195-0.601s0.504-0.997,0.504-1.79
				c0-0.812-0.161-1.412-0.483-1.799s-0.712-0.58-1.169-0.58c-0.461,0-0.859,0.2-1.195,0.601S11.418,76.381,11.418,77.139z"/>
			<path fill="#181818" d="M21.391,78.293l1.09,0.135c-0.172,0.637-0.49,1.131-0.955,1.482s-1.059,0.527-1.781,0.527
				c-0.91,0-1.632-0.28-2.165-0.841s-0.8-1.347-0.8-2.358c0-1.047,0.27-1.859,0.809-2.438s1.238-0.867,2.098-0.867
				c0.832,0,1.512,0.283,2.039,0.85s0.791,1.363,0.791,2.391c0,0.062-0.002,0.156-0.006,0.281h-4.641
				c0.039,0.684,0.232,1.207,0.58,1.57s0.781,0.545,1.301,0.545c0.387,0,0.717-0.102,0.99-0.305S21.23,78.738,21.391,78.293z
				 M17.928,76.588h3.475c-0.047-0.523-0.18-0.916-0.398-1.178c-0.336-0.406-0.771-0.609-1.307-0.609
				c-0.484,0-0.892,0.162-1.222,0.486S17.963,76.045,17.928,76.588z"/>
			<path fill="#181818" d="M23.793,80.297v-6.223h0.949v0.943c0.242-0.441,0.466-0.732,0.671-0.873s0.431-0.211,0.677-0.211
				c0.355,0,0.717,0.113,1.084,0.34l-0.363,0.979c-0.258-0.152-0.516-0.229-0.773-0.229c-0.23,0-0.438,0.069-0.621,0.208
				s-0.314,0.331-0.393,0.577c-0.117,0.375-0.176,0.785-0.176,1.23v3.258H23.793z"/>
		</g>
	</g>
</g>
<style>
#g-5-companies-Artboard_1-interactions-img rect, #g-5-companies-Artboard_1-interactions-img circle, #g-5-companies-Artboard_1-interactions-img path, #g-5-companies-Artboard_1-interactions-img line, #g-5-companies-Artboard_1-interactions-img polyline, #g-5-companies-Artboard_1-interactions-img polygon { vector-effect: non-scaling-stroke; }
</style>
</svg>

